<?xml version="1.0" encoding="UTF-8" standalone="no"?>
<!-- Created with Inkscape (http://www.inkscape.org/) -->

<svg
   version="1.1"
   id="svg1"
   width="583.66699"
   height="580.1955"
   viewBox="0 0 583.66699 580.19549"
   sodipodi:docname="space_images.svg"
   inkscape:version="1.3 (0e150ed6c4, 2023-07-21)"
   xmlns:inkscape="http://www.inkscape.org/namespaces/inkscape"
   xmlns:sodipodi="http://sodipodi.sourceforge.net/DTD/sodipodi-0.dtd"
   xmlns="http://www.w3.org/2000/svg"
   xmlns:svg="http://www.w3.org/2000/svg">
  <defs
     id="defs1" />
  <sodipodi:namedview
     id="namedview1"
     pagecolor="#ffffff"
     bordercolor="#000000"
     borderopacity="0.25"
     inkscape:showpageshadow="2"
     inkscape:pageopacity="0.0"
     inkscape:pagecheckerboard="0"
     inkscape:deskcolor="#d1d1d1"
     inkscape:zoom="0.75231461"
     inkscape:cx="-160.17235"
     inkscape:cy="33.895394"
     inkscape:window-width="2880"
     inkscape:window-height="1514"
     inkscape:window-x="-11"
     inkscape:window-y="-11"
     inkscape:window-maximized="1"
     inkscape:current-layer="g1" />
  <g
     inkscape:groupmode="layer"
     inkscape:label="Image"
     id="g1"
     transform="translate(-4.562607,-2.2196952)">
    <path
       style="fill:#ffffff"
       d="m 456.7263,579.61681 c -3.76014,-1.79643 -7.25314,-3.94018 -7.76222,-4.7639 -0.50908,-0.82371 0.51149,-3.20555 2.26794,-5.29297 3.19354,-3.79532 3.19354,-3.79532 7.76222,-1.36193 2.51278,1.33836 6.73777,2.45854 9.38887,2.48927 2.92709,0.0339 6.19995,-1.02943 8.33333,-2.70755 2.11854,-1.66644 3.51315,-4.08429 3.51315,-6.09079 0,-3.32735 0,-3.32735 -3.8725,-0.56989 -2.4404,1.73771 -5.94811,2.75746 -9.48512,2.75746 -3.22458,0 -7.72441,-1.18689 -10.57591,-2.78952 -2.72981,-1.53424 -6.5615,-5.25434 -8.51488,-8.26689 -2.38474,-3.67782 -3.54197,-7.25144 -3.52231,-10.87715 0.0161,-2.96988 1.14073,-7.84694 2.49916,-10.83791 1.35843,-2.99097 4.08274,-6.70681 6.05403,-8.25742 1.97128,-1.55062 5.70037,-3.51771 8.28686,-4.37133 2.5865,-0.85362 6.4995,-1.19268 8.69557,-0.75347 2.19607,0.43921 5.74236,2.04433 7.88064,3.56692 3.88779,2.76835 3.88779,2.76835 3.88779,0.0109 0,-2.32001 0.83137,-2.75746 5.2406,-2.75746 4.41956,0 5.30735,0.47001 5.66667,3 0.23433,1.65 0.12607,13.00908 -0.2406,25.24241 -0.59736,19.92986 -0.95841,22.63307 -3.47271,26 -1.54332,2.06667 -4.66862,4.84839 -6.9451,6.1816 -2.27648,1.3332 -7.31376,2.71467 -11.19396,3.06993 -5.6356,0.51599 -8.43028,-0.0112 -13.89152,-2.6203 z m 19.99014,-30.30374 c 2.67615,-2.10506 3.51315,-3.95115 3.51315,-7.74859 0,-3.16483 -0.98721,-6.04478 -2.70357,-7.88708 -1.48696,-1.59607 -4.18696,-3.27425 -6,-3.7293 -1.81304,-0.45504 -4.78884,-0.45278 -6.6129,0.005 -1.82406,0.45781 -4.32406,2.37016 -5.55555,4.24966 -1.2315,1.87951 -2.23909,5.26494 -2.23909,7.52319 0,2.8156 1.14071,5.0871 3.6299,7.22821 2.22514,1.91398 5.33755,3.12232 8.04242,3.12232 2.44508,0 5.97892,-1.23215 7.92564,-2.76344 z m -417.820192,0.76344 c 0,-31.33334 0,-31.33334 5.24349,-31.33334 4.05828,0 5.43325,0.5979 6.08303,2.6452 0.82438,2.59738 0.91239,2.59135 4.86899,-0.33334 2.79946,-2.06934 5.77691,-2.94067 9.75422,-2.85452 3.43163,0.0743 7.67587,1.32984 10.59564,3.13436 2.67897,1.6557 6.052212,5.326 7.496082,8.15621 1.60323,3.14259 2.62522,7.81317 2.62522,11.99747 0,3.76839 -0.99377,8.94583 -2.20838,11.50543 -1.21461,2.55961 -4.545242,6.20028 -7.401402,8.0904 -3.5184,2.32837 -6.99841,3.43435 -10.79161,3.42969 -3.07924,-0.004 -7.54861,-1.0192 -9.93194,-2.25647 -4.33334,-2.24957 -4.33334,-2.24957 -4.33334,8.45133 0,10.70091 0,10.70091 -6,10.70091 -6,0 -6,0 -6,-31.33333 z m 30.76923,-0.56411 c 2.75852,-2.75851 3.89744,-5.20441 3.89744,-8.36999 0,-2.4599 -0.91725,-5.7821 -2.03832,-7.38267 -1.12108,-1.60056 -4.16897,-3.30982 -6.77309,-3.79836 -2.88898,-0.54197 -5.93532,-0.24573 -7.8144,0.75993 -1.6938,0.90649 -3.74591,3.11048 -4.56025,4.89775 -0.81433,1.78727 -1.48061,4.96802 -1.48061,7.06833 0,2.62736 1.27984,4.89565 4.1023,7.27059 2.25627,1.89852 5.60242,3.45186 7.4359,3.45186 1.90672,0 5.00181,-1.66821 7.23103,-3.89744 z m -68.76923,14.67936 c -2.2,-0.55136 -5.80141,-1.94142 -8.003145,-3.08903 -2.201731,-1.1476 -5.1540802,-3.35831 -6.5607762,-4.91269 -2.535132,-2.80129 -2.5246,-2.86063 1.19739,-6.74555 3.7550192,-3.91939 3.7550192,-3.91939 9.6548312,-0.46187 3.62908,2.12678 7.90772,3.45752 11.11673,3.45752 2.86931,0 6.12698,-0.75528 7.23928,-1.67841 1.1123,-0.92312 2.02236,-3.08953 2.02236,-4.81424 0,-2.08267 -1.23145,-3.75837 -3.66667,-4.98944 -2.01666,-1.01948 -6.96666,-2.92699 -11,-4.23891 -4.03333,-1.31192 -8.714,-3.2823 -10.401481,-4.37863 -1.687482,-1.09634 -3.9374822,-3.67444 -5.0000002,-5.72912 -1.062517,-2.05469 -1.93185,-5.64477 -1.93185,-7.97796 0,-2.33319 1.209458,-6.19911 2.687683,-8.59093 1.478226,-2.39182 4.9282282,-5.42804 7.6666682,-6.74715 2.85412,-1.37483 7.83092,-2.3696 11.66164,-2.33094 4.00659,0.0404 8.84771,1.17197 12.0892,2.82565 2.97359,1.51702 6.21934,3.73758 7.21277,4.93459 1.56493,1.88563 1.26898,2.71363 -2.21529,6.19791 -4.02153,4.02152 -4.02153,4.02152 -9.08149,0.58773 -2.78299,-1.88858 -6.62624,-3.42459 -8.54058,-3.41337 -1.91433,0.0112 -4.14078,0.46123 -4.94766,1 -0.80689,0.53877 -2.13758,2.25407 -2.9571,3.81176 -1.20478,2.29 -1.03376,3.2451 0.89336,4.98912 1.31086,1.18631 5.69385,3.2959 9.73998,4.68798 4.04613,1.39207 9.1652,3.4663 11.37571,4.6094 2.21051,1.1431 5.00821,3.58792 6.21711,5.43293 1.2089,1.84502 2.19576,5.92568 2.19302,9.06815 -0.003,3.37616 -1.10583,7.51917 -2.69587,10.12715 -1.47998,2.42746 -4.62774,5.21033 -6.99501,6.18415 -2.36728,0.97383 -6.70414,2.08921 -9.63747,2.47863 -2.93334,0.38942 -7.13334,0.25692 -9.33334,-0.29443 z M 127.53503,564.0601 c -2.21535,-0.47035 -5.55185,-1.85372 -7.41445,-3.07415 -1.86261,-1.22042 -4.70006,-4.55601 -6.30544,-7.4124 -1.84082,-3.2753 -2.91888,-7.48519 -2.91888,-11.39837 0,-3.56406 1.12971,-8.41932 2.65435,-11.40788 1.4599,-2.86164 4.75928,-6.80847 7.33196,-8.77075 3.34551,-2.55174 6.20269,-3.54672 10.03298,-3.49386 2.94547,0.0407 6.69609,0.48236 8.33472,0.98157 1.63862,0.49921 4.02932,1.82969 5.31265,2.9566 2.13424,1.87412 2.33334,1.80378 2.33334,-0.82437 0,-2.49701 0.75135,-2.87332 5.73706,-2.87332 5.73706,0 5.73706,0 5.86737,22.66667 0.13031,22.66667 0.13031,22.66667 -5.73706,22.66667 -5.00077,0 -5.86737,-0.39841 -5.86737,-2.69741 0,-2.56421 -0.16311,-2.59053 -3.30324,-0.53304 -1.81678,1.1904 -5.26678,2.59296 -7.66667,3.1168 -2.39988,0.52384 -6.17598,0.5676 -8.39132,0.0972 z m 13.56732,-13.22493 c 2.64443,-1.61247 4.53712,-4.07185 5.09766,-6.62398 0.616,-2.80464 0.15631,-5.30395 -1.48732,-8.08638 -1.34703,-2.28034 -4.272,-4.65191 -6.74339,-5.46754 -2.40048,-0.79223 -5.59423,-1.05012 -7.09722,-0.57309 -1.50298,0.47703 -3.9124,2.13359 -5.35426,3.68124 -1.61023,1.72838 -2.62156,4.68473 -2.62156,7.66342 0,3.33151 0.93905,5.70384 3,7.57887 1.65,1.50116 3.9,3.05838 5,3.46049 1.1,0.40211 2.9,0.77624 4,0.83139 1.1,0.0552 3.89274,-1.05384 6.20609,-2.46442 z m 40.00082,12.69011 c -2.81952,-1.03847 -6.62653,-3.28927 -8.46002,-5.00178 -1.83348,-1.71251 -4.17659,-4.73386 -5.20691,-6.71411 -1.03033,-1.98025 -1.87332,-6.20312 -1.87332,-9.38415 0,-3.34948 1.26263,-8.28303 3,-11.72212 1.65,-3.26613 4.96398,-7.24289 7.36439,-8.83723 2.40041,-1.59435 6.68926,-3.2916 9.53077,-3.77167 2.92086,-0.49348 7.52309,-0.16677 10.58856,0.75167 2.9822,0.89349 7.35875,3.24125 9.72567,5.21724 4.30349,3.59271 4.30349,3.59271 -0.18641,7.60443 -4.48989,4.01172 -4.48989,4.01172 -9.10916,0.877 -2.5406,-1.72409 -6.0817,-3.13472 -7.86911,-3.13472 -1.81415,0 -4.97162,1.72178 -7.14727,3.89744 -2.66,2.65999 -3.89744,5.23256 -3.89744,8.10256 0,2.87 1.23744,5.44257 3.89744,8.10256 2.17565,2.17566 5.33312,3.89744 7.14727,3.89744 1.78741,0 5.43968,-1.48607 8.11617,-3.30238 4.86633,-3.30239 4.86633,-3.30239 9.06555,0.44962 2.41303,2.15604 3.79581,4.40475 3.25082,5.28656 -0.52162,0.84401 -3.4674,3.01068 -6.54616,4.81483 -3.07877,1.80415 -7.99775,3.61207 -10.93109,4.0176 -3.13687,0.43367 -7.44458,-0.0403 -10.45975,-1.15079 z m 221.83276,-0.18204 c -2.54485,-1.12839 -5.75628,-3.07361 -7.13651,-4.3227 -1.38023,-1.24909 -3.42592,-4.04321 -4.54597,-6.20915 -1.12005,-2.16595 -2.00849,-7.05073 -1.97431,-10.85508 0.0342,-3.80434 0.95501,-8.63362 2.04628,-10.73173 1.09127,-2.09811 3.48425,-5.21589 5.31773,-6.9284 1.83349,-1.71251 5.56715,-3.88151 8.29702,-4.82 3.48979,-1.19973 6.57969,-1.34319 10.40726,-0.48319 2.99411,0.67273 6.21746,1.8652 7.163,2.64993 1.28318,1.06494 1.71916,0.87817 1.71916,-0.73649 0,-1.67497 1.3543,-2.16326 6,-2.16326 6,0 6,0 6,22.66667 0,22.66667 0,22.66667 -6,22.66667 -5.14061,0 -6,-0.38767 -6,-2.70659 0,-2.70245 -0.006,-2.70256 -3.66667,-0.0719 -2.01666,1.44906 -5.76666,2.96366 -8.33333,3.36576 -2.82413,0.44245 -6.49354,-0.0789 -9.29366,-1.32051 z m 17.39622,-13.83084 c 2.54139,-2.54138 3.89744,-5.26229 3.89744,-7.82018 0,-2.15752 -1.20731,-5.4576 -2.68292,-7.33353 -1.4756,-1.87593 -4.37136,-3.78162 -6.43503,-4.23488 -2.06367,-0.45325 -5.38538,-0.20314 -7.38158,0.55582 -2.12182,0.80671 -4.38308,3.1836 -5.44372,5.72207 -0.99785,2.38818 -1.4963,6.0055 -1.10767,8.03848 0.38863,2.03299 2.21498,4.88283 4.05857,6.333 1.84358,1.45016 5.11721,2.63666 7.27472,2.63666 2.5579,0 5.2788,-1.35605 7.82019,-3.89744 z m 142.21814,13.99169 c -2.75695,-0.98379 -6.05695,-2.60745 -7.33334,-3.60814 -1.27638,-1.0007 -2.73113,-2.39083 -3.23276,-3.08919 -0.50164,-0.69836 0.52929,-2.71112 2.29096,-4.47279 3.20304,-3.20303 3.20304,-3.20303 9.34658,-0.22899 5.09192,2.46495 6.71474,2.71378 9.48044,1.45365 1.83528,-0.83622 3.09388,-2.26178 2.79687,-3.16793 -0.297,-0.90614 -4.39413,-3.01272 -9.10473,-4.6813 -4.7106,-1.66857 -9.61472,-4.28504 -10.89805,-5.81437 -1.31143,-1.56281 -2.33334,-4.96645 -2.33334,-7.77154 0,-3.41366 1.00655,-6.07701 3.18503,-8.42763 1.75177,-1.89018 5.50177,-4.05443 8.33334,-4.80942 3.14904,-0.83965 7.10165,-0.92701 10.17839,-0.22496 2.76656,0.63128 6.5377,2.13559 8.38032,3.34292 3.35022,2.19515 3.35022,2.19515 0.54578,6.13363 -1.54244,2.16616 -3.54891,3.93848 -4.45881,3.93848 -0.9099,0 -2.81905,-0.88092 -4.24254,-1.9576 -1.4235,-1.07668 -3.95701,-1.97668 -5.63002,-2 -1.67302,-0.0233 -3.41045,0.91815 -3.86096,2.09216 -0.45051,1.17401 0.0183,2.6765 1.04185,3.33886 1.02352,0.66235 5.34089,2.49311 9.59414,4.06834 4.25325,1.57523 8.60325,4.10625 9.66666,5.62449 1.06342,1.51823 1.93349,5.0542 1.93349,7.85769 0,3.58612 -0.93772,6.03499 -3.16303,8.2603 -1.73967,1.73967 -5.48967,3.80905 -8.33334,4.59863 -2.84366,0.78957 -6.0703,1.4126 -7.1703,1.3845 -1.1,-0.0281 -4.25568,-0.856 -7.01263,-1.83979 z m -334.98737,-1.90833 c -2.2,-1.35893 -4.96504,-3.60669 -6.14453,-4.99502 -1.17949,-1.38833 -2.82949,-4.56377 -3.66666,-7.05653 -0.83718,-2.49277 -1.51227,-6.69277 -1.50021,-9.33333 0.0121,-2.64057 1.3743,-7.18881 3.02718,-10.1072 1.68502,-2.97513 5.33627,-6.62638 8.3114,-8.3114 3.20653,-1.81607 7.58312,-3.01392 11.06048,-3.02717 3.16487,-0.0121 7.06487,0.65138 8.66666,1.47431 1.60179,0.82294 4.58435,3.05627 6.6279,4.96296 2.16361,2.0187 4.59023,6.47547 5.80962,10.67005 1.75092,6.02292 1.79753,7.39123 0.28445,8.34995 -0.99529,0.63065 -8.55962,1.15581 -16.80962,1.16704 -12.31909,0.0168 -15,0.37175 -15,1.98618 0,1.08117 1.7702,2.88117 3.93379,4 2.16358,1.11883 4.9229,2.03424 6.13182,2.03424 1.20893,0 4.22127,-0.96009 6.69411,-2.13352 4.31793,-2.049 4.65293,-2.00938 8.45542,1 2.17765,1.72343 3.80397,3.70689 3.61406,4.40767 -0.18992,0.70079 -2.94855,2.65079 -6.1303,4.33334 -3.84966,2.03575 -8.05664,3.05751 -12.57528,3.05419 -4.27544,-0.003 -8.27173,-0.92006 -10.79029,-2.47576 z m 20.66667,-25.09999 c 0,-0.50273 -1.30459,-2.30273 -2.89909,-4 -1.78556,-1.90064 -4.44121,-3.08593 -6.91406,-3.08593 -2.28721,0 -5.34296,1.24757 -7.10092,2.89909 -1.69726,1.59449 -3.08593,3.39449 -3.08593,4 0,0.6055 4.5,1.10091 10,1.10091 5.5,0 10,-0.41133 10,-0.91407 z m 45.33333,-3.08593 c 0,-30.66667 0,-30.66667 6,-30.66667 6,0 6,0 6,30.66667 0,30.66667 0,30.66667 -6,30.66667 -6,0 -6,0 -6,-30.66667 z m 22.66667,8 c 0,-22.66667 0,-22.66667 6,-22.66667 5.17696,0 6,0.37825 6,2.75746 0,2.75746 0,2.75746 3.87249,0 2.35728,-1.67853 5.9514,-2.75746 9.18562,-2.75746 3.25756,0 6.53094,0.99045 8.46084,2.56006 3.10837,2.52806 3.20237,2.5264 7.52083,-0.13333 2.40522,-1.48137 6.38255,-2.69339 8.83852,-2.69339 2.45597,0 5.77018,0.69829 7.3649,1.55176 1.59472,0.85347 4.06514,3.46347 5.48983,5.8 2.20646,3.61867 2.59107,6.76757 2.59532,21.24824 0.005,17 0.005,17 -5.99502,17 -6,0 -6,0 -6,-15.06667 0,-9.94074 -0.54434,-15.61101 -1.6,-16.66667 -0.88,-0.88 -3.24598,-1.6 -5.25773,-1.6 -2.2683,0 -4.44616,1.12566 -5.73333,2.96334 -1.55172,2.2154 -2.0756,6.42205 -2.0756,16.66667 0,13.70333 0,13.70333 -6,13.70333 -6,0 -6,0 -6,-14.08766 0,-7.74821 -0.62112,-15.24821 -1.38025,-16.66667 -0.87886,-1.64215 -2.78878,-2.57901 -5.25773,-2.57901 -2.49539,0 -4.61731,1.05626 -5.95309,2.96334 -1.55172,2.2154 -2.0756,6.42205 -2.0756,16.66667 0,13.70333 0,13.70333 -6,13.70333 -6,0 -6,0 -6,-22.66667 z m 195.81137,19.79 c -2.67041,-1.54848 -6.12041,-5.06639 -7.66667,-7.81758 -1.84887,-3.28962 -2.81137,-7.35472 -2.81137,-11.87374 0,-4.25151 1.02177,-8.87441 2.67975,-12.12432 1.50513,-2.95031 4.57345,-6.23416 7,-7.49174 2.37614,-1.23145 6.2998,-2.68729 8.71924,-3.2352 2.41945,-0.54792 6.40002,-0.4437 8.84571,0.23159 2.44568,0.67528 6.03288,2.47548 7.97154,4.00043 1.93865,1.52494 4.6517,4.98149 6.029,7.68121 1.37729,2.69972 2.71055,6.993 2.9628,9.54063 0.45863,4.63205 0.45863,4.63205 -15.10294,5.29872 -8.55886,0.36667 -16.0499,1.1577 -16.64674,1.75786 -0.59685,0.60015 0.40585,2.23681 2.22823,3.63702 1.82238,1.4002 5.12991,2.55917 7.35007,2.57547 2.22016,0.0163 5.38147,-0.9123 7.02514,-2.06356 2.76545,-1.937 3.33949,-1.87627 7.69208,0.81377 2.58698,1.59885 4.48455,3.56416 4.21681,4.36737 -0.26773,0.80321 -3.09004,2.83701 -6.27178,4.51956 -3.88332,2.05354 -8.01715,3.04911 -12.57529,3.02855 -4.44252,-0.02 -8.46902,-1.00407 -11.64558,-2.84604 z m 21.52196,-24.70407 c 0,-0.50273 -1.30459,-2.30273 -2.89908,-4 -1.78557,-1.90064 -4.44121,-3.08593 -6.91407,-3.08593 -2.2872,0 -5.34296,1.24757 -7.10091,2.89909 -1.69727,1.59449 -3.08594,3.39449 -3.08594,4 0,0.6055 4.5,1.10091 10,1.10091 5.5,0 10,-0.41133 10,-0.91407 z M 28.229588,470.54789 c 0,-0.84074 6.40071,-12.99074 14.22381,-27 7.8231,-14.00926 17.52465,-31.17138 21.55901,-38.13805 4.03435,-6.96666 9.53455,-16.56666 12.22267,-21.33333 2.68811,-4.76666 8.66506,-15.26666 13.28211,-23.33333 4.61705,-8.06667 11.544992,-20.06667 15.395422,-26.66667 3.85043,-6.6 19.44981,-33.9 34.66527,-60.66666 15.21547,-26.76667 31.98616,-56.16667 37.2682,-65.33333 5.28204,-9.16667 12.6378,-22.06667 16.34615,-28.66667 19.46259,-35.44524 39.82629,-70.28366 59.17563,-105.796429 2.64271,-4.87862 7.50497,-13.97023 10.80503,-20.20356 3.30005,-6.23333 10.92614,-20.033333 16.94686,-30.666666 6.02072,-10.633333 11.42817,-19.8230462 12.01655,-20.4215842 0.58839,-0.598539 2.56783,1.501461 4.39875,4.666666 1.83093,3.1652052 6.2125,11.1549182 9.73682,17.7549182 3.52431,6.6 9.38137,17.399999 13.01569,23.999996 3.63431,6.6 7.6464,13.5 8.91574,15.33334 1.26934,1.83333 4.85683,8.43333 7.97218,14.66666 3.11536,6.23334 11.06328,20.63333 17.66206,31.999999 6.59878,11.36666 14.26015,24.56666 17.02527,29.33333 2.76512,4.76667 8.04221,13.76667 11.72687,20 3.68466,6.23333 25.75968,44.63333 49.05559,85.33333 23.29592,40.7 53.43578,93.5 66.97747,117.33333 13.54169,23.83333 32.62245,57.70389 42.40169,75.26791 9.77924,17.56402 17.48443,32.2306 17.12263,32.59239 -0.3618,0.3618 -25.39124,-11.74857 -55.62098,-26.91193 -30.22974,-15.16336 -79.56316,-40.05707 -109.62982,-55.31937 -30.06667,-15.26229 -63.83022,-32.47894 -75.0301,-38.25921 -11.19989,-5.78027 -19.89989,-10.92888 -19.33334,-11.44134 0.56656,-0.51247 5.04437,-2.24304 9.95069,-3.84572 4.90633,-1.60268 12.40633,-5.18732 16.66667,-7.96586 4.26034,-2.77855 11.23864,-8.64176 15.50732,-13.02935 4.26869,-4.38759 8.9223,-9.72721 10.34137,-11.86581 1.41906,-2.13861 4.30622,-8.38837 6.4159,-13.88837 2.10969,-5.5 4.23535,-13.3388 4.7237,-17.41954 0.48835,-4.08075 0.23144,-11.52895 -0.57093,-16.55155 -0.80236,-5.02261 -3.434,-13.40697 -5.84807,-18.63191 -2.79521,-6.04987 -7.04843,-12.22363 -11.71156,-16.9999 -4.02729,-4.125 -10.27494,-9.37337 -13.88367,-11.66305 -3.60872,-2.28968 -10.46132,-5.37631 -15.22798,-6.85918 -5.50268,-1.71183 -12.62096,-2.73122 -19.49808,-2.79226 -5.95728,-0.0529 -14.05728,0.65233 -18,1.56713 -3.94273,0.9148 -11.06859,3.48964 -15.83526,5.72187 -5.80636,2.71911 -11.55909,6.95792 -17.43067,12.84349 -5.01995,5.03192 -10.27426,11.91775 -12.29919,16.11823 -1.94435,4.03333 -4.52646,11.23333 -5.73801,16 -1.58126,6.22121 -1.99135,11.68664 -1.45336,19.36941 0.43533,6.21672 2.0988,14.42011 3.96869,19.57162 1.77058,4.87787 5.16115,11.89508 7.5346,15.59379 2.37346,3.69871 7.91489,10.05744 12.31429,14.13051 4.39941,4.07307 11.08014,8.96696 14.84607,10.8753 3.76594,1.90834 10.35376,4.78796 14.63961,6.39914 4.28585,1.61119 7.79359,3.48386 7.79498,4.16149 10e-4,0.67764 -7.08787,5.02903 -15.75391,9.66977 -8.66604,4.64073 -40.05643,20.78341 -69.75643,35.87262 -29.7,15.08921 -72.3,36.86685 -94.66667,48.39477 -22.366672,11.52791 -48.234142,24.93523 -57.483282,29.79404 -9.24914,4.85881 -17.49914,8.8342 -18.33334,8.8342 -0.83419,0 -1.51671,-0.68788 -1.51671,-1.52862 z"
       id="path1"
       sodipodi:nodetypes="ssssssssssssssssssssssssssssssssssssssssssssssscssssssssssssssssssssssssssssssssssssssssssssssssssssssssssssssssssssssssssssssssssssssssssssssssssssssssssssssssssssssssssssssssssssssssssssssssssssssssssssssssssssssssssscssssssssssssssssssssssssssssssssssssssssssssssssssssssssssssssssssssssssssssssssssssssssssssssssssssssssssssssssssssscssssss" />
  </g>
</svg>
